<?xml version="1.0" encoding="UTF-8" standalone="no"?>
<!-- Created with Inkscape (http://www.inkscape.org/) -->

<svg
   xmlns:dc="http://purl.org/dc/elements/1.1/"
   xmlns:cc="http://creativecommons.org/ns#"
   xmlns:rdf="http://www.w3.org/1999/02/22-rdf-syntax-ns#"
   xmlns:svg="http://www.w3.org/2000/svg"
   xmlns="http://www.w3.org/2000/svg"
   xmlns:sodipodi="http://sodipodi.sourceforge.net/DTD/sodipodi-0.dtd"
   xmlns:inkscape="http://www.inkscape.org/namespaces/inkscape"
   width="160.2115mm"
   height="160.2115mm"
   viewBox="0 0 160.2115 160.2115"
   version="1.1"
   id="svg8"
   sodipodi:docname="logo-transparent.svg"
   inkscape:version="0.92.4 5da689c313, 2019-01-14">
  <defs
     id="defs2" />
  <sodipodi:namedview
     id="base"
     pagecolor="#ffffff"
     bordercolor="#666666"
     borderopacity="1.0"
     inkscape:pageopacity="0.0"
     inkscape:pageshadow="2"
     inkscape:zoom="0.76953105"
     inkscape:cx="360.36856"
     inkscape:cy="154.74096"
     inkscape:document-units="mm"
     inkscape:current-layer="layer1"
     showgrid="false"
     inkscape:window-width="958"
     inkscape:window-height="1028"
     inkscape:window-x="215"
     inkscape:window-y="48"
     inkscape:window-maximized="0" />
  <metadata
     id="metadata5">
    <rdf:RDF>
      <cc:Work
         rdf:about="">
        <dc:format>image/svg+xml</dc:format>
        <dc:type
           rdf:resource="http://purl.org/dc/dcmitype/StillImage" />
        <dc:title />
      </cc:Work>
    </rdf:RDF>
  </metadata>
  <g
     inkscape:label="Layer 1"
     inkscape:groupmode="layer"
     id="layer1"
     transform="translate(-29.708803,-63.019071)" />
  <g
     inkscape:groupmode="layer"
     id="layer2"
     inkscape:label="Layer 2"
     transform="translate(-29.708803,-63.019071)">
    <path
       style="fill:#ffffff;fill-opacity:1;stroke-width:0.16654004"
       d="M 29.708803,143.12482 V 63.019071 h 80.105767 80.10574 v 80.105749 80.10576 H 109.81457 29.708803 Z m 155.881467,0 V 67.349112 h -75.7757 -75.775727 v 75.775708 75.77572 h 75.775727 75.7757 z m -96.260137,1.91521 v -9.40951 h 1.582131 1.582131 v 0.83271 0.83269 l 0.659607,-0.6596 c 2.139347,-2.13935 6.080787,-1.11808 7.664338,1.98592 1.07765,2.11237 1.0794,6.05667 0.004,8.16537 -1.551211,3.04063 -5.186761,4.0897 -7.405301,2.13686 l -0.755711,-0.66521 v 3.09514 3.09515 h -1.665496 -1.665403 z m 7.103826,1.97505 c 1.31635,-0.62465 1.96438,-2.32014 1.86192,-4.8714 -0.10653,-2.65213 -1.05827,-4.01506 -2.80376,-4.01506 -1.02042,0 -1.76848,0.50267 -2.307841,1.55078 -0.338889,0.65854 -0.426292,1.11422 -0.490462,2.55714 -0.09737,2.18916 0.140632,3.35959 0.846643,4.16369 0.28482,0.3244 0.67184,0.65218 0.86005,0.72839 0.55869,0.22628 1.41851,0.17827 2.03345,-0.11354 z m 52.184431,-1.97505 v -9.40951 h 1.58213 1.58213 v 0.83271 0.83269 l 0.6596,-0.6596 c 2.13936,-2.13935 6.0808,-1.11808 7.66434,1.98592 1.07765,2.11237 1.0794,6.05667 0.004,8.16537 -1.55121,3.04063 -5.18675,4.0897 -7.4053,2.13686 l -0.7557,-0.66521 v 3.09514 3.09515 h -1.66541 -1.6654 z m 7.10381,1.97505 c 1.31636,-0.62465 1.9644,-2.32014 1.86192,-4.8714 -0.10652,-2.65213 -1.05827,-4.01506 -2.80375,-4.01506 -1.02042,0 -1.76848,0.50267 -2.30784,1.55078 -0.33889,0.65854 -0.42629,1.11422 -0.49046,2.55714 -0.0974,2.18916 0.14063,3.35959 0.84664,4.16369 0.28483,0.3244 0.67184,0.65218 0.86004,0.72839 0.5587,0.22628 1.41852,0.17827 2.03345,-0.11354 z m -78.912451,2.87211 c -1.758249,-0.47344 -2.694237,-1.74998 -2.703299,-3.68686 -0.0047,-0.98277 0.0681,-1.29684 0.451784,-1.95154 1.017187,-1.73568 3.7794,-2.78937 7.312283,-2.78937 h 1.009833 l -0.103119,-0.7523 c -0.221591,-1.61666 -1.063241,-2.4346 -2.621146,-2.54729 -1.216414,-0.088 -2.301311,0.26789 -3.432885,1.12611 l -0.86587,0.65669 -0.83345,-1.03191 -0.833444,-1.03191 0.533527,-0.46083 c 0.763698,-0.65961 2.69812,-1.55732 3.86299,-1.7927 2.160951,-0.43665 4.606002,0.17843 5.908359,1.48633 1.298684,1.30421 1.38684,1.76351 1.465663,7.63698 l 0.06763,5.03784 h -1.596761 -1.596752 v -0.58289 c 0,-0.56327 -0.202147,-0.76294 -0.41831,-0.41319 -0.184287,0.2982 -1.63397,0.94839 -2.545972,1.1419 -1.11435,0.23644 -2.067701,0.2224 -3.061041,-0.0451 z m 4.158387,-2.58114 c 1.062317,-0.54219 1.652288,-1.47752 1.818809,-2.88353 l 0.100603,-0.8494 -1.650005,0.0922 c -1.88669,0.1054 -2.874378,0.43326 -3.482558,1.15604 -0.443677,0.52729 -0.5521,1.40138 -0.245009,1.9752 0.440812,0.82366 2.304596,1.09827 3.45816,0.50952 z m 27.763914,2.57628 c -1.36459,-0.34223 -2.03679,-0.70069 -2.97118,-1.58439 -1.46372,-1.38433 -2.09689,-3.01811 -2.10422,-5.42957 -0.01,-3.24365 1.32055,-5.62206 3.80116,-6.79548 0.98948,-0.46806 1.26766,-0.52363 2.60656,-0.52069 1.29439,0.003 1.642,0.0688 2.54814,0.48367 2.17086,0.99387 3.18577,2.76382 3.3248,5.79827 l 0.082,1.7903 h -4.61246 c -4.31402,0 -4.60699,0.0189 -4.52788,0.29145 0.0465,0.1603 0.16801,0.6142 0.26999,1.00868 0.21531,0.83288 1.09618,1.88021 1.90361,2.26336 1.18395,0.56183 3.28087,0.13021 4.33603,-0.89249 l 0.51975,-0.50376 0.90106,0.91241 0.90107,0.91239 -0.48757,0.50892 c -1.58936,1.65894 -4.13462,2.34788 -6.49087,1.75693 z m 4.0793,-8.88089 c -4.6e-4,-0.0687 -0.0828,-0.42468 -0.18289,-0.79107 -0.86455,-3.16503 -4.87721,-2.89454 -5.55871,0.37472 l -0.11284,0.54126 h 2.92769 c 1.61022,0 2.92726,-0.0562 2.92675,-0.12491 z m 23.28665,8.88575 c -1.75824,-0.47344 -2.69423,-1.74998 -2.70329,-3.68686 -0.005,-0.98277 0.0681,-1.29684 0.45178,-1.95154 1.01719,-1.73568 3.77939,-2.78937 7.31228,-2.78937 h 1.00983 l -0.10311,-0.7523 c -0.22159,-1.61666 -1.06325,-2.4346 -2.62115,-2.54729 -1.21642,-0.088 -2.30131,0.26789 -3.43289,1.12611 l -0.86586,0.65669 -0.83346,-1.03191 -0.83344,-1.03191 0.53353,-0.46083 c 0.76369,-0.65961 2.69812,-1.55732 3.86299,-1.7927 2.16095,-0.43665 4.606,0.17843 5.90836,1.48633 1.29868,1.30421 1.38683,1.76351 1.46566,7.63698 l 0.0676,5.03784 h -1.59676 -1.59675 v -0.58289 c 0,-0.56327 -0.20215,-0.76294 -0.41831,-0.41319 -0.18429,0.2982 -1.63397,0.94839 -2.54597,1.1419 -1.11435,0.23644 -2.0677,0.2224 -3.06105,-0.0451 z m 4.15838,-2.58114 c 1.06233,-0.54219 1.6523,-1.47752 1.81882,-2.88353 l 0.1006,-0.8494 -1.65,0.0922 c -1.8867,0.1054 -2.87438,0.43326 -3.48257,1.15604 -0.44367,0.52729 -0.5521,1.40138 -0.245,1.9752 0.44081,0.82366 2.3046,1.09827 3.45815,0.50952 z m -75.241094,2.16617 c -1.123823,-0.39983 -2.023471,-1.34566 -2.350332,-2.471 -0.247828,-0.85322 -0.300537,-5.49885 -0.08614,-7.59153 l 0.114184,-1.11452 h -1.503494 -1.503503 v -1.33233 -1.33232 h 1.582131 1.582131 l 0.0096,-0.95761 c 0.0054,-0.52667 0.06235,-1.25506 0.126889,-1.61861 l 0.117298,-0.66102 1.739124,-0.29026 c 0.956519,-0.15965 1.757947,-0.27146 1.780947,-0.24846 0.02298,0.023 -0.05746,0.33867 -0.178821,0.70148 -0.121352,0.3628 -0.268444,1.20299 -0.326869,1.86707 l -0.106233,1.20741 h 2.185831 2.18583 l -0.09691,0.95761 c -0.05327,0.52668 -0.09962,1.12622 -0.102918,1.33232 -0.0062,0.36822 -0.04201,0.37472 -2.08021,0.37472 h -2.074252 l -0.08728,0.54125 c -0.247952,1.53757 -0.406499,5.29849 -0.265035,6.28688 0.127742,0.89254 0.244458,1.16289 0.665058,1.5405 0.832752,0.74764 2.441727,0.553 3.763675,-0.45529 0.326419,-0.24897 0.635171,-0.411 0.68611,-0.36006 0.05094,0.0509 0.229122,0.58487 0.395954,1.1865 l 0.303317,1.09388 -0.634938,0.42018 c -1.680351,1.112 -4.193896,1.50927 -5.841191,0.92321 z m 59.288254,0 c -1.12382,-0.39983 -2.02347,-1.34566 -2.35034,-2.471 -0.24782,-0.85322 -0.30054,-5.49885 -0.0861,-7.59153 l 0.11419,-1.11452 h -1.5035 -1.5035 v -1.33233 -1.33232 h 1.58213 1.58213 l 0.01,-0.95761 c 0.005,-0.52667 0.0623,-1.25506 0.1269,-1.61861 l 0.11729,-0.66102 1.73913,-0.29026 c 0.95651,-0.15965 1.75794,-0.27146 1.78094,-0.24846 0.023,0.023 -0.0575,0.33867 -0.17882,0.70148 -0.12135,0.3628 -0.26844,1.20299 -0.32686,1.86707 l -0.10624,1.20741 h 2.18583 2.18583 l -0.0969,0.95761 c -0.0533,0.52668 -0.0996,1.12622 -0.10292,1.33232 -0.006,0.36822 -0.0419,0.37472 -2.08021,0.37472 h -2.0742 l -0.0873,0.54125 c -0.24795,1.53757 -0.4065,5.29849 -0.26503,6.28688 0.12774,0.89254 0.24445,1.16289 0.66505,1.5405 0.83276,0.74764 2.44173,0.553 3.76368,-0.45529 0.32641,-0.24897 0.63517,-0.411 0.68611,-0.36006 0.0509,0.0509 0.22913,0.58487 0.39595,1.1865 l 0.30332,1.09388 -0.63494,0.42018 c -1.68034,1.112 -4.19389,1.50927 -5.84119,0.92321 z"
       id="path896"
       inkscape:connector-curvature="0" />
  </g>
</svg>
